<?xml version="1.0" encoding="UTF-8" standalone="no"?>
<!-- Generator: Adobe Illustrator 26.0.3, SVG Export Plug-In . SVG Version: 6.00 Build 0)  -->

<svg
   version="1.0"
   id="katman_1"
   x="0px"
   y="0px"
   viewBox="0 0 600 450"
   style="enable-background:new 0 0 600 450;"
   xml:space="preserve"
   sodipodi:docname="facebooklogo.svg"
   inkscape:version="1.3 (0e150ed6c4, 2023-07-21)"
   xmlns:inkscape="http://www.inkscape.org/namespaces/inkscape"
   xmlns:sodipodi="http://sodipodi.sourceforge.net/DTD/sodipodi-0.dtd"
   xmlns="http://www.w3.org/2000/svg"
   xmlns:svg="http://www.w3.org/2000/svg"><defs
   id="defs3" /><sodipodi:namedview
   id="namedview3"
   pagecolor="#ffffff"
   bordercolor="#000000"
   borderopacity="0.25"
   inkscape:showpageshadow="2"
   inkscape:pageopacity="0.0"
   inkscape:pagecheckerboard="0"
   inkscape:deskcolor="#d1d1d1"
   inkscape:zoom="1.2209377"
   inkscape:cx="219.91294"
   inkscape:cy="262.50315"
   inkscape:window-width="1920"
   inkscape:window-height="991"
   inkscape:window-x="-9"
   inkscape:window-y="-9"
   inkscape:window-maximized="1"
   inkscape:current-layer="katman_1" />&#10;<style
   type="text/css"
   id="style1">&#10;	.st0{fill:#010202;}&#10;</style>&#10;&#10;&#10;&#10;<path
   class="st0"
   d="m 299.54269,13.665475 c -113.73752,0 -205.802476,93.763615 -205.802476,209.599615 0,115.83598 92.064956,209.59959 205.802476,209.59959 113.73752,0 205.80251,-93.76361 205.80251,-209.59959 0,-115.836 -92.23835,-209.599615 -205.80251,-209.599615 z m 60.50975,127.137085 c 0,0 -20.45886,0 -28.60776,0 -10.05604,0 -12.13662,4.2379 -12.13662,14.83262 0,8.829 0,25.60402 0,25.60402 h 40.74438 l -3.98774,45.02772 H 319.13467 V 360.99691 H 266.2537 V 226.79666 h -27.56751 v -45.73402 h 27.56751 c 0,0 0,-6.53346 0,-36.02218 0,-33.72665 17.85814,-51.384586 57.04211,-51.384586 6.41508,0 36.58326,0 36.58326,0 z"
   id="path3"
   style="fill:#0069b1;fill-opacity:1;stroke-width:1.74973" />&#10;<path
   style="fill:#de8787;fill-opacity:0;stroke-width:0.579151"
   d="m 274.2278,278.28185 v -39.38224 h -8.10811 -8.10811 v -13.03088 -13.03089 h 8.03198 8.03197 l 0.30816,-14.0444 c 0.22496,-10.2525 0.55695,-14.94615 1.22961,-17.38425 2.74082,-9.93426 8.66657,-15.61047 19.27597,-18.46424 3.87159,-1.04139 6.70357,-1.26042 19.44471,-1.5039 l 14.91312,-0.28497 v 13.67872 13.67871 h -9.28501 c -10.34738,0 -12.89263,0.58569 -13.88469,3.19502 -0.31651,0.83248 -0.57547,5.92713 -0.57547,11.32145 v 9.80786 h 11.87259 c 6.52992,0 11.87152,0.19546 11.87023,0.43436 -0.005,0.84616 -1.70479,19.59228 -2.04856,22.58687 l -0.34903,3.04054 h -10.96219 -10.96219 v 39.38224 39.38224 H 289.57529 274.2278 Z"
   id="path4" /><path
   style="fill:#de8787;fill-opacity:0;stroke-width:0.579151"
   d="m 274.2278,278.28185 v -39.38224 h -8.10811 -8.10811 v -13.03088 -13.03089 h 8.03198 8.03197 l 0.30816,-14.0444 c 0.22496,-10.2525 0.55695,-14.94615 1.22961,-17.38425 2.74082,-9.93426 8.66657,-15.61047 19.27597,-18.46424 3.87159,-1.04139 6.70357,-1.26042 19.44471,-1.5039 l 14.91312,-0.28497 v 13.67872 13.67871 h -9.28501 c -10.34738,0 -12.89263,0.58569 -13.88469,3.19502 -0.31651,0.83248 -0.57547,5.92713 -0.57547,11.32145 v 9.80786 h 11.87259 c 6.52992,0 11.87152,0.19546 11.87023,0.43436 -0.005,0.84616 -1.70479,19.59228 -2.04856,22.58687 l -0.34903,3.04054 h -10.96219 -10.96219 v 39.38224 39.38224 H 289.57529 274.2278 Z"
   id="path5" /><path
   style="fill:#de8787;fill-opacity:0;stroke-width:0.579151"
   d="m 274.2278,278.28185 v -39.38224 h -8.10811 -8.10811 v -13.03088 -13.03089 h 8.03198 8.03197 l 0.30816,-14.0444 c 0.22496,-10.2525 0.55695,-14.94615 1.22961,-17.38425 2.74082,-9.93426 8.66657,-15.61047 19.27597,-18.46424 3.87159,-1.04139 6.70357,-1.26042 19.44471,-1.5039 l 14.91312,-0.28497 v 13.67872 13.67871 h -9.28501 c -10.34738,0 -12.89263,0.58569 -13.88469,3.19502 -0.31651,0.83248 -0.57547,5.92713 -0.57547,11.32145 v 9.80786 h 11.87259 c 6.52992,0 11.87152,0.19546 11.87023,0.43436 -0.005,0.84616 -1.70479,19.59228 -2.04856,22.58687 l -0.34903,3.04054 h -10.96219 -10.96219 v 39.38224 39.38224 H 289.57529 274.2278 Z"
   id="path6" /><path
   style="fill:#de8787;fill-opacity:0;stroke-width:0.579151"
   d="m 274.2278,278.28185 v -39.38224 h -8.10811 -8.10811 v -13.03088 -13.03089 h 8.03198 8.03197 l 0.30816,-14.0444 c 0.22496,-10.2525 0.55695,-14.94615 1.22961,-17.38425 2.74082,-9.93426 8.66657,-15.61047 19.27597,-18.46424 3.87159,-1.04139 6.70357,-1.26042 19.44471,-1.5039 l 14.91312,-0.28497 v 13.67872 13.67871 h -9.28501 c -10.34738,0 -12.89263,0.58569 -13.88469,3.19502 -0.31651,0.83248 -0.57547,5.92713 -0.57547,11.32145 v 9.80786 h 11.87259 c 6.52992,0 11.87152,0.19546 11.87023,0.43436 -0.005,0.84616 -1.70479,19.59228 -2.04856,22.58687 l -0.34903,3.04054 h -10.96219 -10.96219 v 39.38224 39.38224 H 289.57529 274.2278 Z"
   id="path7" /><path
   style="fill:#de8787;fill-opacity:0;stroke-width:0.579151"
   d="m 274.2278,278.28185 v -39.38224 h -8.10811 -8.10811 v -13.03088 -13.03089 h 8.03198 8.03197 l 0.30816,-14.0444 c 0.22496,-10.2525 0.55695,-14.94615 1.22961,-17.38425 2.74082,-9.93426 8.66657,-15.61047 19.27597,-18.46424 3.87159,-1.04139 6.70357,-1.26042 19.44471,-1.5039 l 14.91312,-0.28497 v 13.67872 13.67871 h -9.28501 c -10.34738,0 -12.89263,0.58569 -13.88469,3.19502 -0.31651,0.83248 -0.57547,5.92713 -0.57547,11.32145 v 9.80786 h 11.87259 c 6.52992,0 11.87152,0.19546 11.87023,0.43436 -0.005,0.84616 -1.70479,19.59228 -2.04856,22.58687 l -0.34903,3.04054 h -10.96219 -10.96219 v 39.38224 39.38224 H 289.57529 274.2278 Z"
   id="path8" /><path
   style="fill:#de8787;fill-opacity:0;stroke-width:0.579151"
   d="m 274.2278,278.28185 v -39.38224 h -8.10811 -8.10811 v -13.03088 -13.03089 h 8.03198 8.03197 l 0.30816,-14.0444 c 0.22496,-10.2525 0.55695,-14.94615 1.22961,-17.38425 2.74082,-9.93426 8.66657,-15.61047 19.27597,-18.46424 3.87159,-1.04139 6.70357,-1.26042 19.44471,-1.5039 l 14.91312,-0.28497 v 13.67872 13.67871 h -9.28501 c -10.34738,0 -12.89263,0.58569 -13.88469,3.19502 -0.31651,0.83248 -0.57547,5.92713 -0.57547,11.32145 v 9.80786 h 11.87259 c 6.52992,0 11.87152,0.19546 11.87023,0.43436 -0.005,0.84616 -1.70479,19.59228 -2.04856,22.58687 l -0.34903,3.04054 h -10.96219 -10.96219 v 39.38224 39.38224 H 289.57529 274.2278 Z"
   id="path9" /><path
   style="fill:#de8787;fill-opacity:0;stroke-width:0.579151"
   d="m 274.2278,278.28185 v -39.38224 h -8.10811 -8.10811 v -13.03088 -13.03089 h 8.03198 8.03197 l 0.30816,-14.0444 c 0.22496,-10.2525 0.55695,-14.94615 1.22961,-17.38425 2.74082,-9.93426 8.66657,-15.61047 19.27597,-18.46424 3.87159,-1.04139 6.70357,-1.26042 19.44471,-1.5039 l 14.91312,-0.28497 v 13.67872 13.67871 h -9.28501 c -10.34738,0 -12.89263,0.58569 -13.88469,3.19502 -0.31651,0.83248 -0.57547,5.92713 -0.57547,11.32145 v 9.80786 h 11.87259 c 6.52992,0 11.87152,0.19546 11.87023,0.43436 -0.005,0.84616 -1.70479,19.59228 -2.04856,22.58687 l -0.34903,3.04054 h -10.96219 -10.96219 v 39.38224 39.38224 H 289.57529 274.2278 Z"
   id="path10" /><path
   style="fill:#de8787;fill-opacity:0;stroke-width:0.579151"
   d="m 274.2278,278.28185 v -39.38224 h -8.10811 -8.10811 v -13.03088 -13.03089 h 8.03198 8.03197 l 0.30816,-14.0444 c 0.22496,-10.2525 0.55695,-14.94615 1.22961,-17.38425 2.74082,-9.93426 8.66657,-15.61047 19.27597,-18.46424 3.87159,-1.04139 6.70357,-1.26042 19.44471,-1.5039 l 14.91312,-0.28497 v 13.67872 13.67871 h -9.28501 c -10.34738,0 -12.89263,0.58569 -13.88469,3.19502 -0.31651,0.83248 -0.57547,5.92713 -0.57547,11.32145 v 9.80786 h 11.87259 c 6.52992,0 11.87152,0.19546 11.87023,0.43436 -0.005,0.84616 -1.70479,19.59228 -2.04856,22.58687 l -0.34903,3.04054 h -10.96219 -10.96219 v 39.38224 39.38224 H 289.57529 274.2278 Z"
   id="path11" /><path
   style="fill:#de8787;fill-opacity:0;stroke-width:0.579151"
   d="m 274.2278,278.28185 v -39.38224 h -8.10811 -8.10811 v -13.03088 -13.03089 h 8.03198 8.03197 l 0.30816,-14.0444 c 0.22496,-10.2525 0.55695,-14.94615 1.22961,-17.38425 2.74082,-9.93426 8.66657,-15.61047 19.27597,-18.46424 3.87159,-1.04139 6.70357,-1.26042 19.44471,-1.5039 l 14.91312,-0.28497 v 13.67872 13.67871 h -9.28501 c -10.34738,0 -12.89263,0.58569 -13.88469,3.19502 -0.31651,0.83248 -0.57547,5.92713 -0.57547,11.32145 v 9.80786 h 11.87259 c 6.52992,0 11.87152,0.19546 11.87023,0.43436 -0.005,0.84616 -1.70479,19.59228 -2.04856,22.58687 l -0.34903,3.04054 h -10.96219 -10.96219 v 39.38224 39.38224 H 289.57529 274.2278 Z"
   id="path12" /><path
   style="fill:#de8787;fill-opacity:0;stroke-width:0.579151"
   d="m 274.2278,278.28185 v -39.38224 h -8.10811 -8.10811 v -13.03088 -13.03089 h 8.03198 8.03197 l 0.30816,-14.0444 c 0.22496,-10.2525 0.55695,-14.94615 1.22961,-17.38425 2.74082,-9.93426 8.66657,-15.61047 19.27597,-18.46424 3.87159,-1.04139 6.70357,-1.26042 19.44471,-1.5039 l 14.91312,-0.28497 v 13.67872 13.67871 h -9.28501 c -10.34738,0 -12.89263,0.58569 -13.88469,3.19502 -0.31651,0.83248 -0.57547,5.92713 -0.57547,11.32145 v 9.80786 h 11.87259 c 6.52992,0 11.87152,0.19546 11.87023,0.43436 -0.005,0.84616 -1.70479,19.59228 -2.04856,22.58687 l -0.34903,3.04054 h -10.96219 -10.96219 v 39.38224 39.38224 H 289.57529 274.2278 Z"
   id="path13" /><path
   style="fill:#de8787;fill-opacity:0;stroke-width:0.579151"
   d="m 282.91506,359.54894 c -28.40892,-2.91195 -54.24994,-15.08501 -74.04626,-34.88133 -19.14355,-19.14355 -31.07725,-43.06234 -35.13461,-70.42051 -1.25206,-8.44241 -1.27251,-24.49646 -0.0425,-33.33496 5.66543,-40.70922 29.92798,-74.97957 66.07662,-93.33187 18.0372,-9.15731 40.1528,-13.98955 59.25692,-12.94759 30.9913,1.69031 58.26881,13.8321 80.04844,35.63126 23.34641,23.36734 35.88769,53.80099 35.88769,87.08787 0,14.12417 -1.77315,25.25258 -6.1525,38.61344 -8.56889,26.14262 -25.84559,48.82255 -48.86681,64.14972 -15.31688,10.19774 -34.97428,17.19912 -53.98296,19.22711 -5.24749,0.55985 -18.4446,0.67831 -23.04406,0.20686 z M 305.50193,278.861 v -39.38224 h 11.00386 c 6.05213,0 11.00806,-0.19546 11.01318,-0.43436 0.005,-0.2389 0.52518,-6.03764 1.15568,-12.8861 0.6305,-6.84845 1.14754,-12.77751 1.14898,-13.17567 0.002,-0.5557 -2.75659,-0.72394 -11.86996,-0.72394 h -11.87259 v -9.81327 c 0,-9.53579 0.0395,-9.85921 1.39648,-11.43822 l 1.39648,-1.62496 10.4761,-0.18134 10.47611,-0.18135 v -14.15263 -14.15263 l -11.72779,0.005 c -22.03379,0.009 -30.3141,2.04056 -36.96098,9.06867 -5.7164,6.04425 -6.92995,10.8397 -7.3403,29.00573 l -0.30416,13.46525 h -8.03029 -8.0303 v 13.61004 13.61003 h 8.10811 8.10811 v 39.38224 39.38224 h 15.92664 15.92664 z"
   id="path14" /><path
   style="fill:#de8787;fill-opacity:0;stroke-width:0.579151"
   d="m 282.91506,359.54894 c -28.40892,-2.91195 -54.24994,-15.08501 -74.04626,-34.88133 -19.14355,-19.14355 -31.07725,-43.06234 -35.13461,-70.42051 -1.25206,-8.44241 -1.27251,-24.49646 -0.0425,-33.33496 5.66543,-40.70922 29.92798,-74.97957 66.07662,-93.33187 18.0372,-9.15731 40.1528,-13.98955 59.25692,-12.94759 30.9913,1.69031 58.26881,13.8321 80.04844,35.63126 23.34641,23.36734 35.88769,53.80099 35.88769,87.08787 0,14.12417 -1.77315,25.25258 -6.1525,38.61344 -8.56889,26.14262 -25.84559,48.82255 -48.86681,64.14972 -15.31688,10.19774 -34.97428,17.19912 -53.98296,19.22711 -5.24749,0.55985 -18.4446,0.67831 -23.04406,0.20686 z M 305.50193,278.861 v -39.38224 h 11.00386 c 6.05213,0 11.00806,-0.19546 11.01318,-0.43436 0.005,-0.2389 0.52518,-6.03764 1.15568,-12.8861 0.6305,-6.84845 1.14754,-12.77751 1.14898,-13.17567 0.002,-0.5557 -2.75659,-0.72394 -11.86996,-0.72394 h -11.87259 v -9.81327 c 0,-9.53579 0.0395,-9.85921 1.39648,-11.43822 l 1.39648,-1.62496 10.4761,-0.18134 10.47611,-0.18135 v -14.15263 -14.15263 l -11.72779,0.005 c -22.03379,0.009 -30.3141,2.04056 -36.96098,9.06867 -5.7164,6.04425 -6.92995,10.8397 -7.3403,29.00573 l -0.30416,13.46525 h -8.03029 -8.0303 v 13.61004 13.61003 h 8.10811 8.10811 v 39.38224 39.38224 h 15.92664 15.92664 z"
   id="path15" /><path
   style="fill:#de8787;fill-opacity:0;stroke-width:0.579151"
   d="m 282.91506,359.54894 c -28.40892,-2.91195 -54.24994,-15.08501 -74.04626,-34.88133 -19.14355,-19.14355 -31.07725,-43.06234 -35.13461,-70.42051 -1.25206,-8.44241 -1.27251,-24.49646 -0.0425,-33.33496 5.66543,-40.70922 29.92798,-74.97957 66.07662,-93.33187 18.0372,-9.15731 40.1528,-13.98955 59.25692,-12.94759 30.9913,1.69031 58.26881,13.8321 80.04844,35.63126 23.34641,23.36734 35.88769,53.80099 35.88769,87.08787 0,14.12417 -1.77315,25.25258 -6.1525,38.61344 -8.56889,26.14262 -25.84559,48.82255 -48.86681,64.14972 -15.31688,10.19774 -34.97428,17.19912 -53.98296,19.22711 -5.24749,0.55985 -18.4446,0.67831 -23.04406,0.20686 z M 305.50193,278.861 v -39.38224 h 11.00386 c 6.05213,0 11.00806,-0.19546 11.01318,-0.43436 0.005,-0.2389 0.52518,-6.03764 1.15568,-12.8861 0.6305,-6.84845 1.14754,-12.77751 1.14898,-13.17567 0.002,-0.5557 -2.75659,-0.72394 -11.86996,-0.72394 h -11.87259 v -9.81327 c 0,-9.53579 0.0395,-9.85921 1.39648,-11.43822 l 1.39648,-1.62496 10.4761,-0.18134 10.47611,-0.18135 v -14.15263 -14.15263 l -11.72779,0.005 c -22.03379,0.009 -30.3141,2.04056 -36.96098,9.06867 -5.7164,6.04425 -6.92995,10.8397 -7.3403,29.00573 l -0.30416,13.46525 h -8.03029 -8.0303 v 13.61004 13.61003 h 8.10811 8.10811 v 39.38224 39.38224 h 15.92664 15.92664 z"
   id="path16" /><path
   style="fill:#de8787;fill-opacity:0;stroke-width:0.579151"
   d="m 274.2278,278.28185 v -39.38224 h -8.10811 -8.10811 v -13.03088 -13.03089 h 8.03198 8.03197 l 0.30816,-14.0444 c 0.22496,-10.2525 0.55695,-14.94615 1.22961,-17.38425 2.74082,-9.93426 8.66657,-15.61047 19.27597,-18.46424 3.87159,-1.04139 6.70357,-1.26042 19.44471,-1.5039 l 14.91312,-0.28497 v 13.67872 13.67871 h -9.28501 c -10.34738,0 -12.89263,0.58569 -13.88469,3.19502 -0.31651,0.83248 -0.57547,5.92713 -0.57547,11.32145 v 9.80786 h 11.87259 c 6.52992,0 11.87152,0.19546 11.87023,0.43436 -0.005,0.84616 -1.70479,19.59228 -2.04856,22.58687 l -0.34903,3.04054 h -10.96219 -10.96219 v 39.38224 39.38224 H 289.57529 274.2278 Z"
   id="path17" /><path
   style="fill:#de8787;fill-opacity:0;stroke-width:0.579151"
   d="m 282.91506,359.54894 c -28.40892,-2.91195 -54.24994,-15.08501 -74.04626,-34.88133 -19.14355,-19.14355 -31.07725,-43.06234 -35.13461,-70.42051 -1.25206,-8.44241 -1.27251,-24.49646 -0.0425,-33.33496 5.66543,-40.70922 29.92798,-74.97957 66.07662,-93.33187 18.0372,-9.15731 40.1528,-13.98955 59.25692,-12.94759 30.9913,1.69031 58.26881,13.8321 80.04844,35.63126 23.34641,23.36734 35.88769,53.80099 35.88769,87.08787 0,14.12417 -1.77315,25.25258 -6.1525,38.61344 -8.56889,26.14262 -25.84559,48.82255 -48.86681,64.14972 -15.31688,10.19774 -34.97428,17.19912 -53.98296,19.22711 -5.24749,0.55985 -18.4446,0.67831 -23.04406,0.20686 z M 305.50193,278.861 v -39.38224 h 11.00386 c 6.05213,0 11.00806,-0.19546 11.01318,-0.43436 0.005,-0.2389 0.52518,-6.03764 1.15568,-12.8861 0.6305,-6.84845 1.14754,-12.77751 1.14898,-13.17567 0.002,-0.5557 -2.75659,-0.72394 -11.86996,-0.72394 h -11.87259 v -9.81327 c 0,-9.53579 0.0395,-9.85921 1.39648,-11.43822 l 1.39648,-1.62496 10.4761,-0.18134 10.47611,-0.18135 v -14.15263 -14.15263 l -12.8861,0.13288 -12.8861,0.13289 12.59653,0.16798 12.59652,0.16799 v 13.59874 13.59874 h -9.28501 c -10.34737,0 -12.89263,0.58569 -13.88469,3.19502 -0.31651,0.83248 -0.57547,5.92713 -0.57547,11.32145 v 9.80786 h 11.87259 c 6.52992,0 11.87152,0.19546 11.87023,0.43436 -0.005,0.84616 -1.70479,19.59228 -2.04856,22.58687 l -0.34903,3.04054 h -10.96219 -10.96219 v 39.38224 39.38224 h -15.34347 -15.34347 l -0.1529,-39.52702 -0.15289,-39.52703 -0.1407,39.8166 -0.1407,39.8166 h 15.92664 15.92664 z m -47.63701,-59.50772 c -0.10088,-3.74276 -0.18341,-0.6805 -0.18341,6.80502 0,7.48552 0.0825,10.54778 0.18341,6.80502 0.10088,-3.74276 0.10088,-9.86728 0,-13.61004 z m 18.13032,-39.36963 c 3.38885,-10.46623 11.13398,-16.23106 24.32942,-18.10879 l 3.72939,-0.53069 L 300,161.60978 c -13.1843,0.86382 -22.57529,8.49727 -25.1176,20.4168 -0.36003,1.68797 -0.62035,4.16384 -0.57848,5.50193 0.0597,1.90704 0.17423,1.59066 0.53007,-1.46378 0.24968,-2.14316 0.77224,-4.87964 1.16125,-6.08108 z"
   id="path18" /><path
   style="fill:#de8787;fill-opacity:0;stroke-width:0.579151"
   d="m 274.2278,278.28185 v -39.38224 h -8.10811 -8.10811 v -13.03088 -13.03089 h 8.03198 8.03197 l 0.30816,-14.0444 c 0.22496,-10.2525 0.55695,-14.94615 1.22961,-17.38425 2.74082,-9.93426 8.66657,-15.61047 19.27597,-18.46424 3.87159,-1.04139 6.70357,-1.26042 19.44471,-1.5039 l 14.91312,-0.28497 v 13.67872 13.67871 h -9.28501 c -10.34738,0 -12.89263,0.58569 -13.88469,3.19502 -0.31651,0.83248 -0.57547,5.92713 -0.57547,11.32145 v 9.80786 h 11.87259 c 6.52992,0 11.87152,0.19546 11.87023,0.43436 -0.005,0.84616 -1.70479,19.59228 -2.04856,22.58687 l -0.34903,3.04054 h -10.96219 -10.96219 v 39.38224 39.38224 H 289.57529 274.2278 Z"
   id="path19" /><path
   style="fill:#de8787;fill-opacity:0;stroke-width:0.579151"
   d="m 274.2278,278.28185 v -39.38224 h -8.10811 -8.10811 v -13.03088 -13.03089 h 8.03198 8.03197 l 0.30816,-14.0444 c 0.22496,-10.2525 0.55695,-14.94615 1.22961,-17.38425 2.74082,-9.93426 8.66657,-15.61047 19.27597,-18.46424 3.87159,-1.04139 6.70357,-1.26042 19.44471,-1.5039 l 14.91312,-0.28497 v 13.67872 13.67871 h -9.28501 c -10.34738,0 -12.89263,0.58569 -13.88469,3.19502 -0.31651,0.83248 -0.57547,5.92713 -0.57547,11.32145 v 9.80786 h 11.87259 c 6.52992,0 11.87152,0.19546 11.87023,0.43436 -0.005,0.84616 -1.70479,19.59228 -2.04856,22.58687 l -0.34903,3.04054 h -10.96219 -10.96219 v 39.38224 39.38224 H 289.57529 274.2278 Z"
   id="path20" /><path
   style="fill:#de8787;fill-opacity:0;stroke-width:0.579151"
   d="m 282.91506,359.54894 c -28.40892,-2.91195 -54.24994,-15.08501 -74.04626,-34.88133 -19.14355,-19.14355 -31.07725,-43.06234 -35.13461,-70.42051 -1.25206,-8.44241 -1.27251,-24.49646 -0.0425,-33.33496 5.66543,-40.70922 29.92798,-74.97957 66.07662,-93.33187 18.0372,-9.15731 40.1528,-13.98955 59.25692,-12.94759 30.9913,1.69031 58.26881,13.8321 80.04844,35.63126 23.34641,23.36734 35.88769,53.80099 35.88769,87.08787 0,14.12417 -1.77315,25.25258 -6.1525,38.61344 -8.56889,26.14262 -25.84559,48.82255 -48.86681,64.14972 -15.31688,10.19774 -34.97428,17.19912 -53.98296,19.22711 -5.24749,0.55985 -18.4446,0.67831 -23.04406,0.20686 z M 305.50193,278.861 v -39.38224 h 11.00386 c 6.05213,0 11.00806,-0.19546 11.01318,-0.43436 0.005,-0.2389 0.52518,-6.03764 1.15568,-12.8861 0.6305,-6.84845 1.14754,-12.77751 1.14898,-13.17567 0.002,-0.5557 -2.75659,-0.72394 -11.86996,-0.72394 h -11.87259 v -9.81327 c 0,-9.53579 0.0395,-9.85921 1.39648,-11.43822 l 1.39648,-1.62496 10.4761,-0.18134 10.47611,-0.18135 v -14.15263 -14.15263 l -11.72779,0.005 c -22.03379,0.009 -30.3141,2.04056 -36.96098,9.06867 -5.7164,6.04425 -6.92995,10.8397 -7.3403,29.00573 l -0.30416,13.46525 h -8.03029 -8.0303 v 13.61004 13.61003 h 8.10811 8.10811 v 39.38224 39.38224 h 15.92664 15.92664 z"
   id="path21" /><path
   style="fill:#de8787;fill-opacity:0;stroke-width:0.579151"
   d="m 274.2278,278.28185 v -39.38224 h -8.10811 -8.10811 v -13.03088 -13.03089 h 8.03198 8.03197 l 0.30816,-14.0444 c 0.22496,-10.2525 0.55695,-14.94615 1.22961,-17.38425 2.74082,-9.93426 8.66657,-15.61047 19.27597,-18.46424 3.87159,-1.04139 6.70357,-1.26042 19.44471,-1.5039 l 14.91312,-0.28497 v 13.67872 13.67871 h -9.28501 c -10.34738,0 -12.89263,0.58569 -13.88469,3.19502 -0.31651,0.83248 -0.57547,5.92713 -0.57547,11.32145 v 9.80786 h 11.87259 c 6.52992,0 11.87152,0.19546 11.87023,0.43436 -0.005,0.84616 -1.70479,19.59228 -2.04856,22.58687 l -0.34903,3.04054 h -10.96219 -10.96219 v 39.38224 39.38224 H 289.57529 274.2278 Z"
   id="path22" /></svg>
