<?xml version="1.0" encoding="UTF-8" standalone="no"?>
<!-- Uploaded to: SVG Repo, www.svgrepo.com, Transformed by: SVG Repo Mixer Tools -->

<svg
   fill="#64dfe8"
   height="800px"
   width="800px"
   version="1.1"
   id="Layer_1"
   viewBox="0 0 330 330"
   xml:space="preserve"
   stroke="#64dfe8"
   sodipodi:docname="dd.svg"
   inkscape:version="1.3 (0e150ed6c4, 2023-07-21)"
   xmlns:inkscape="http://www.inkscape.org/namespaces/inkscape"
   xmlns:sodipodi="http://sodipodi.sourceforge.net/DTD/sodipodi-0.dtd"
   xmlns="http://www.w3.org/2000/svg"
   xmlns:svg="http://www.w3.org/2000/svg"><defs
   id="defs1" /><sodipodi:namedview
   id="namedview1"
   pagecolor="#ffffff"
   bordercolor="#000000"
   borderopacity="0.25"
   inkscape:showpageshadow="2"
   inkscape:pageopacity="0.0"
   inkscape:pagecheckerboard="0"
   inkscape:deskcolor="#d1d1d1"
   inkscape:zoom="0.97125"
   inkscape:cx="400"
   inkscape:cy="400"
   inkscape:window-width="1920"
   inkscape:window-height="991"
   inkscape:window-x="-9"
   inkscape:window-y="-9"
   inkscape:window-maximized="1"
   inkscape:current-layer="Layer_1" />&#10;&#10;<g
   id="SVGRepo_bgCarrier"
   stroke-width="0" />&#10;&#10;<g
   id="SVGRepo_tracerCarrier"
   stroke-linecap="round"
   stroke-linejoin="round" />&#10;&#10;<g
   id="SVGRepo_iconCarrier"> <path
   id="XMLID_24_"
   d="M315,0H15C6.716,0,0,6.716,0,15v300c0,8.284,6.716,15,15,15h300c8.284,0,15-6.716,15-15V15 C330,6.716,323.284,0,315,0z M255.606,135.606l-79.998,80c-2.813,2.813-6.628,4.394-10.606,4.394c-3.979,0-7.793-1.58-10.607-4.394 l-80.002-80c-5.858-5.857-5.858-15.355,0-21.213c5.857-5.858,15.355-5.858,21.213,0l69.396,69.393l69.392-69.393 c5.857-5.858,15.355-5.858,21.213,0C261.465,120.251,261.465,129.749,255.606,135.606z" /> </g>&#10;&#10;<path
   style="fill:#ff8080;fill-opacity:0;stroke:#c83737;stroke-width:1.0296"
   d="m 391.69045,530.44213 c -2.58827,-0.73145 -6.75816,-2.55164 -9.26641,-4.04488 -2.5732,-1.53191 -48.16888,-46.37535 -104.63503,-102.90876 -81.75988,-81.85727 -100.60265,-101.23012 -102.9601,-105.85657 -2.49052,-4.8876 -2.88554,-6.86085 -2.88554,-14.41442 0,-7.29799 0.44604,-9.69218 2.68538,-14.41441 3.34665,-7.05726 9.98738,-13.66092 17.38492,-17.28789 4.76598,-2.33672 6.98267,-2.77197 13.90654,-2.73055 15.68945,0.0938 8.80593,-5.83308 106.8211,91.97644 L 400,447.83669 l 87.25869,-87.0756 c 98.06099,-97.85525 91.16215,-91.91762 106.8211,-91.93776 10.21234,-0.0131 15.72272,2.24836 23.57617,9.67583 7.77491,7.35319 10.35622,13.5065 10.36933,24.71834 0.018,15.37271 6.77442,7.71659 -107.3966,121.69698 -89.2408,89.0918 -102.23294,101.68217 -106.94706,103.63983 -6.80773,2.82706 -15.90434,3.60796 -21.99118,1.88782 z"
   id="path1"
   transform="scale(0.4125)" /><path
   style="fill:#ff8080;fill-opacity:0;stroke:#c83737;stroke-width:1.0296"
   d="m 393.549,529.66126 c -2.13235,-0.51458 -5.83892,-1.91749 -8.2368,-3.11756 C 382.33393,525.05316 348.78333,492.17824 279.43483,422.79863 200.01305,343.3412 177.41579,320.17218 175.61317,316.35006 c -1.82533,-3.87029 -2.2991,-6.68545 -2.27997,-13.54774 0.0294,-10.56882 2.49758,-16.24171 10.20159,-23.4479 7.84888,-7.34171 11.96097,-9.03475 22.29671,-9.18007 7.71096,-0.10842 9.35547,0.20215 13.29479,2.51075 7.32048,4.29009 14.9378,11.6276 99.18976,95.54629 44.26302,44.08792 81.07551,80.15986 81.80555,80.15986 0.73002,0 39.57274,-38.13846 86.31714,-84.75215 57.62147,-57.46032 87.09981,-86.13951 91.54216,-89.06049 6.42262,-4.22305 6.72836,-4.30814 15.44402,-4.29828 11.50015,0.013 16.99915,2.4448 24.93964,11.02889 6.54039,7.07051 8.15193,11.37086 8.40296,22.42308 0.18507,8.14824 -1.0353,11.21028 -7.79651,19.56242 -5.53442,6.83668 -169.98037,171.82602 -189.28712,189.91259 -12.23801,11.46458 -15.94972,14.36705 -19.56242,15.29737 -6.98009,1.79748 -12.36064,2.17297 -16.57247,1.15658 z"
   id="path2"
   transform="scale(0.4125)" /><path
   style="fill:#ff8080;fill-opacity:0;stroke:#c83737;stroke-width:1.0296"
   d="m 389.70399,527.40402 c -2.40842,-0.80693 -10.77468,-8.09344 -25.22523,-21.96967 C 330.5848,472.88745 181.5551,322.77854 178.13165,317.73778 c -2.58234,-3.8023 -3.13651,-5.75006 -3.46031,-12.16218 -0.60079,-11.89745 1.00559,-16.02509 9.55305,-24.54672 8.24096,-8.21607 11.75986,-9.72901 22.62849,-9.72901 8.64271,0 12.32854,1.80564 22.35945,10.95355 4.17775,3.81 41.4183,40.33567 82.75678,81.16817 41.33848,40.83249 78.04029,76.94147 81.55957,80.24216 l 6.39868,6.00127 3.38253,-2.77649 c 1.86039,-1.52708 36.00336,-35.05692 75.87328,-74.51076 84.34036,-83.46022 97.7195,-96.29611 103.38339,-99.18561 3.49713,-1.7841 5.52504,-2.05621 12.47772,-1.67428 10.37559,0.56997 14.78856,2.72314 22.37462,10.91698 6.76962,7.312 8.46394,12.24891 7.90546,23.03488 -0.33661,6.50063 -0.86462,8.23211 -3.86585,12.67698 -5.33276,7.8979 -201.36685,203.51431 -207.43864,206.99666 -4.08479,2.34275 -6.49858,2.93837 -12.87001,3.17578 -4.31325,0.16072 -9.46389,-0.2511 -11.44587,-0.91514 z"
   id="path3"
   transform="scale(0.4125)" /><path
   style="fill:#ff8080;fill-opacity:0;stroke:#c83737;stroke-width:1.0296"
   d="m 392.02824,526.72536 c -1.83621,-0.46796 -6.00609,-3.06112 -9.26641,-5.7626 -10.26659,-8.50681 -202.72042,-201.67634 -204.65356,-205.41462 -2.35475,-4.55358 -3.151,-15.6314 -1.54919,-21.55304 1.66726,-6.16357 14.10878,-18.84893 20.12468,-20.51909 7.22683,-2.00635 14.95445,-1.43062 20.95881,1.56147 5.83819,2.9093 14.18526,10.92601 120.58137,115.809 30.86229,30.42338 57.37951,56.30764 58.92715,57.52056 2.01155,1.57651 3.29649,1.93525 4.50638,1.25816 0.93086,-0.52093 36.73026,-35.46533 79.55419,-77.6542 85.09486,-83.83295 97.3966,-95.57217 102.87702,-98.1728 4.8047,-2.27998 16.73305,-1.50624 22.55311,1.46294 6.17066,3.14803 15.15378,13.39064 16.75274,19.10156 2.05013,7.32236 0.90487,17.20952 -2.60956,22.52842 -3.19143,4.83004 -134.50274,137.05148 -178.15085,179.38562 -15.34145,14.8796 -29.29708,27.77963 -31.01251,28.66672 -3.75568,1.94214 -14.96467,2.96154 -19.59337,1.7819 z"
   id="path4"
   transform="scale(0.4125)" /><path
   style="fill:#ff8080;fill-opacity:0;stroke:#c83737;stroke-width:1.0296"
   d="m 392.14914,525.56126 c -1.76972,-0.53449 -7.09791,-4.37795 -11.84041,-8.54102 -13.12253,-11.51922 -199.3159,-198.9146 -201.13619,-202.43466 -2.22932,-4.31103 -3.05907,-14.10664 -1.63942,-19.35416 1.50877,-5.57694 11.75079,-16.74387 18.23683,-19.8837 3.81496,-1.84679 5.85364,-2.16091 11.22591,-1.72967 11.77366,0.94507 7.19305,-3.12494 108.58131,96.47776 82.03535,80.59061 81.78736,80.35464 84.44556,80.35464 2.83345,0 1.02099,1.72388 92.64136,-88.11355 93.49161,-91.67223 90.48545,-88.97783 99.27275,-88.97783 8.70325,0 13.84174,2.03694 20.36814,8.07407 10.34935,9.57351 13.03062,18.06043 9.48151,30.01157 -1.57664,5.30913 -4.8094,8.69613 -87.77349,91.96161 -98.32884,98.68606 -121.14855,120.68248 -126.08125,121.53259 -7.74233,1.33433 -12.76895,1.53253 -15.78261,0.62235 z"
   id="path5"
   transform="scale(0.4125)" /><path
   style="fill:#ff8080;fill-opacity:0;stroke:#c83737;stroke-width:1.0296"
   d="M 387.54187,521.37622 C 382.6282,517.89944 252.49486,388.47341 207.30971,342.12367 l -27.8158,-28.53271 -1.08145,-6.47373 c -1.58101,-9.46409 -0.0968,-13.7048 7.72941,-22.08404 3.51644,-3.76494 8.2468,-7.68998 10.51193,-8.72232 5.04723,-2.30029 11.69197,-2.44205 16.6847,-0.35595 7.51638,3.14054 11.25905,6.63996 100.17501,93.66416 81.29328,79.56368 83.71789,81.86097 86.3984,81.86097 1.1432,0 4.52645,-2.15163 7.51833,-4.78139 2.99188,-2.62977 40.18881,-38.71846 82.65985,-80.19709 79.36615,-77.51162 90.48337,-88.05895 95.68727,-90.78211 3.91277,-2.04752 13.14235,-1.28811 18.68003,1.53701 5.6951,2.90542 14.13737,12.19199 16.34965,17.98476 2.11526,5.53872 1.70953,11.85254 -1.16309,18.09966 -1.77552,3.86124 -165.51716,169.05442 -192.75727,194.466 -17.44192,16.27112 -18.25371,16.76611 -27.5044,16.77098 -6.52825,0.003 -7.79468,-0.339 -11.84041,-3.20165 z"
   id="path6"
   transform="scale(0.4125)" /><path
   style="fill:#ff8080;fill-opacity:0;stroke:#c83737;stroke-width:1.0296"
   d="M 389.70399,521.42186 C 385.80604,518.99899 214.69906,348.76969 193.06709,325.79358 l -13.15722,-13.97476 -0.71916,-6.19639 c -0.93597,-8.06436 0.6854,-11.9341 8.41742,-20.08989 13.72986,-14.48235 22.61461,-13.53488 42.10771,4.49036 5.59966,5.17799 43.07695,41.47112 83.28287,80.65138 80.08151,78.03863 84.10915,81.83537 86.81216,81.83537 1.01655,0 3.40851,-1.1511 5.31545,-2.558 1.90696,-1.40691 33.57103,-31.87023 70.36462,-67.69627 110.74907,-107.83674 109.66112,-106.8371 116.2753,-106.8371 1.62035,0 5.04987,0.52973 7.62117,1.17719 8.87817,2.23555 21.98868,17.47402 21.97107,25.53719 -0.003,1.44608 -0.50177,4.41563 -1.10802,6.59899 -1.30642,4.70491 -5.54601,9.15384 -90.89859,95.38675 -65.68629,66.36378 -111.46737,111.28481 -118.09956,115.88092 -5.91656,4.10017 -16.15326,4.77596 -21.54832,1.42254 z"
   id="path7"
   transform="scale(0.4125)" /><path
   style="fill:#ff8080;fill-opacity:0;stroke:#c83737;stroke-width:1.0296"
   d="M 390.73359,520.41049 C 388.75161,519.1773 340.72936,471.77351 284.01748,415.06873 l -103.11251,-103.09962 -0.68001,-5.80916 c -0.90087,-7.69593 0.98625,-12.08417 8.49496,-19.75397 15.97881,-16.3216 21.11948,-14.42436 57.86953,21.35765 35.48493,34.55021 121.72941,118.13916 134.75326,130.6041 8.14261,7.79318 15.91565,14.44824 17.27342,14.78902 1.69613,0.4257 3.66835,-0.19471 6.30209,-1.98245 2.10836,-1.43112 23.09263,-21.29143 46.6317,-44.13399 23.53907,-22.84258 58.98308,-57.24411 78.76448,-76.44787 40.59856,-39.41306 55.3885,-52.91136 58.95522,-53.80656 1.35089,-0.33905 4.96744,-0.0545 8.03676,0.63243 4.43402,0.99229 6.80135,2.37908 11.52224,6.74981 3.26792,3.0255 7.24113,7.88847 8.82937,10.80658 3.83841,7.05245 3.17282,12.30523 -2.46261,19.43458 -6.19818,7.84129 -134.91971,138.10538 -170.18892,172.22841 -17.35236,16.78844 -33.1992,31.54386 -35.2152,32.78982 -5.49241,3.39449 -14.44012,3.85601 -19.05767,0.98298 z"
   id="path8"
   transform="scale(0.4125)" /><path
   style="fill:#ff8080;fill-opacity:0;stroke:#c83737;stroke-width:1.0296"
   d="m 392.91168,519.95538 c -2.083,-0.93748 -45.20596,-43.2137 -107.20489,-105.09984 -100.05965,-99.87765 -103.74153,-103.68732 -104.3253,-107.94638 -1.01499,-7.40516 0.87152,-11.63108 8.87869,-19.8889 15.36515,-15.84615 18.18575,-14.5204 64.56607,30.34756 14.44016,13.96929 48.03815,46.50018 74.6622,72.29087 72.10585,69.84881 67.44004,65.74827 72.78901,63.97063 3.81007,-1.26621 13.23343,-10.14046 100.68264,-94.81564 65.80421,-63.7168 78.00536,-75.24131 83.6856,-79.0446 3.71033,-2.48431 4.15505,-2.54665 9.55159,-1.33896 4.55551,1.01948 6.85256,2.37071 11.77066,6.92399 3.66149,3.38989 7.21686,7.91848 8.87079,11.29899 2.50227,5.11447 2.6464,6.02154 1.54223,9.70689 -1.74948,5.83928 -13.54915,18.27181 -98.6453,103.93602 -70.43574,70.90593 -106.55257,106.00798 -112.04344,108.89533 -4.07512,2.14289 -10.92957,2.49721 -14.78055,0.76404 z"
   id="path9"
   transform="scale(0.4125)" /><path
   style="fill:#ff8080;fill-opacity:0;stroke:#c83737;stroke-width:1.0296"
   d="m 394.96222,519.28378 c -4.86191,-1.41237 -209.34043,-205.4149 -211.70613,-211.21332 -2.52822,-6.19679 -0.72139,-10.73899 7.8693,-19.78276 8.85636,-9.32345 12.25678,-10.77582 18.61482,-7.95069 9.53222,4.23555 12.03662,6.54752 114.67747,105.86584 59.62232,57.69233 69.43759,66.89874 73.13997,68.60305 5.23318,2.40896 1.91761,5.37397 103.34325,-92.41702 73.31574,-70.68843 83.50554,-80.26333 87.75838,-82.46264 6.95769,-3.59809 21.24296,5.68319 27.066,17.58506 2.48554,5.08025 2.57265,5.71725 1.22173,8.93444 -2.58491,6.15591 -18.3275,22.66669 -96.44973,101.15625 -75.71647,76.07247 -108.14942,107.64556 -113.25387,110.25127 -3.98688,2.03521 -8.42143,2.55175 -12.28119,1.43052 z"
   id="path10"
   transform="scale(0.4125)" /><path
   style="fill:#ff8080;fill-opacity:0;stroke:#c83737;stroke-width:1.0296"
   d="M 368.53284,492.91737 C 321.88153,448.00526 185.26035,310.10541 184.13178,306.79048 c -1.80654,-5.30635 0.17068,-9.40038 8.76235,-18.14332 9.27553,-9.43886 11.64392,-10.03665 20.23328,-5.10697 7.64952,4.39028 7.64911,4.3899 95.7529,89.24749 76.10796,73.30376 83.36053,80.13007 87.5051,82.36207 6.42389,3.45949 2.70653,6.66173 93.18988,-80.27672 105.66345,-101.52384 97.809,-94.30675 102.63522,-94.30675 9.25674,0 24.00571,14.15106 24.00571,23.03255 0,3.45963 -5.58753,10.2487 -26.34158,32.00608 -23.29346,24.41956 -170.13676,170.66603 -177.83856,177.11576 -5.14176,4.30587 -6.74151,5.07246 -11.38994,5.45795 l -5.408,0.44847 z"
   id="path11"
   transform="scale(0.4125)" /><path
   style="fill:#ff8080;fill-opacity:0;stroke:#c83737;stroke-width:1.0296"
   d="M 358.74009,481.46946 C 319.0939,442.44272 217.55399,340.52489 197.36123,319.48996 c -14.11398,-14.70261 -14.70003,-16.10915 -9.61152,-23.06778 1.61498,-2.20852 5.58424,-6.50351 8.82058,-9.54442 5.30136,-4.98122 6.23249,-5.47241 9.39956,-4.95847 8.16303,1.32468 7.25523,0.5095 103.42526,92.87249 76.75826,73.71966 83.06673,79.6203 87.30147,81.65763 3.13921,1.51027 3.64283,1.49374 6.83311,-0.22435 5.51795,-2.9716 22.46937,-18.75747 97.37121,-90.67604 83.30247,-79.98462 87.61129,-83.95314 91.15194,-83.95314 6.82026,0 19.9564,10.95817 22.229,18.54345 1.1082,3.69884 0.98845,4.39484 -1.3692,7.95748 -5.08055,7.67722 -32.70577,36.00607 -117.29342,120.28092 -53.97158,53.772 -87.23357,86.16584 -89.59722,87.25869 -2.06756,0.95595 -5.34494,1.7381 -7.28308,1.7381 -3.24742,0 -6.38524,-2.81667 -39.99883,-35.90506 z"
   id="path12"
   transform="scale(0.4125)" /><path
   style="fill:#ff8080;fill-opacity:0;stroke:#c83737;stroke-width:1.0296"
   d="M 384.34327,504.61844 C 362.33305,484.22684 189.27789,310.06748 187.43919,306.45797 c -1.4414,-2.82956 -1.54226,-3.97383 -0.55942,-6.34662 1.42127,-3.43125 15.63118,-17.49584 17.6437,-17.46326 2.98082,0.0483 9.88344,4.0123 15.29635,8.78439 9.43313,8.31638 16.40611,14.92616 88.54569,83.93357 79.51438,76.06202 83.61888,79.88022 88.23753,82.0827 6.82558,3.25489 2.96205,6.62749 113.04947,-98.68443 64.76087,-61.9516 76.86506,-73.26616 80.40739,-75.16196 2.20956,-1.18251 3.12501,-1.07165 7.10078,0.85993 6.31271,3.06695 12.34742,8.77237 14.93719,14.12214 2.00465,4.14104 2.05541,4.74256 0.63243,7.4943 -2.97776,5.75836 -28.84631,32.3218 -116.06538,119.18321 -54.43315,54.20993 -89.34494,88.225 -91.67252,89.31789 -2.06756,0.9708 -4.71155,1.76509 -5.87552,1.76509 -1.27059,0 -7.17443,-4.68615 -14.77361,-11.72648 z"
   id="path13"
   transform="scale(0.4125)" /><path
   style="fill:#ff8080;fill-opacity:0;stroke:#c83737;stroke-width:1.0296"
   d="M 389.18919,507.26839 C 375.6794,495.41323 189.04879,307.82396 188.00438,305.05016 c -0.57357,-1.52329 -0.42064,-3.25116 0.43559,-4.92146 1.45369,-2.83581 15.21655,-16.47937 16.60793,-16.46395 2.52487,0.028 12.25077,6.91483 20.43473,14.46974 5.09652,4.70479 38.22393,36.17174 73.61647,69.92654 88.09453,84.01811 90.5301,86.2942 95.51196,89.25787 8.64079,5.14034 3.42884,9.468 103.18419,-85.67749 76.34896,-72.82075 86.83422,-82.69006 90.99937,-85.6536 l 3.64264,-2.59179 4.42488,2.2767 c 5.15941,2.65465 11.68994,8.62908 13.77613,12.60305 2.87257,5.47194 2.06198,7.01815 -11.26797,21.49366 -14.78777,16.0586 -186.80588,187.61188 -192.16309,191.64382 -6.78301,5.10502 -7.72374,4.88861 -18.01802,-4.14486 z"
   id="path14"
   transform="scale(0.4125)" /><path
   style="fill:#ff8080;fill-opacity:0;stroke:#c83737;stroke-width:1.0296"
   d="m 391.01743,507.21453 c -3.83694,-3.32287 -50.87586,-50.09277 -104.53094,-103.93309 -73.42765,-73.68115 -97.5547,-98.48441 -97.5547,-100.28887 0,-1.6272 2.63629,-5.01821 8.2061,-10.55535 l 8.2061,-8.15797 6.98051,4.77496 c 3.83929,2.62623 13.47613,10.9414 21.41521,18.47814 7.93908,7.53674 41.76147,39.67144 75.16087,71.41044 79.36161,75.41625 80.26225,76.25172 85.52479,79.33578 3.9907,2.33871 4.90979,2.5072 8.04025,1.47406 1.94397,-0.64157 7.62848,-4.66363 12.63224,-8.93791 9.93212,-8.48415 15.64165,-13.84946 94.02738,-88.35881 73.16613,-69.54786 73.79533,-70.14066 78.80786,-74.24804 4.45426,-3.64993 4.45778,-3.6508 7.81575,-1.91432 4.88492,2.52609 13.98901,11.46711 14.74555,14.48143 0.43941,1.7507 -0.0868,3.81844 -1.62312,6.37759 -2.40095,3.99951 -181.36021,184.05808 -196.7647,197.97338 -6.14854,5.55414 -9.8102,8.13016 -11.55657,8.13016 -1.63903,0 -5.05967,-2.16795 -9.53258,-6.04158 z"
   id="path15"
   transform="scale(0.4125)" /><path
   style="fill:#ff8080;fill-opacity:0;stroke:#c83737;stroke-width:1.0296"
   d="M 394.17225,508.23638 C 387.65091,503.01447 195.19731,309.9031 192.13384,305.50743 l -2.35066,-3.37288 7.94689,-8.16618 7.94688,-8.16618 4.24003,2.92227 c 7.72596,5.32481 21.13582,17.7095 88.15252,81.41335 100.10047,95.1522 97.61054,92.98672 104.25522,90.67038 7.24505,-2.52565 9.74395,-4.78269 98.01683,-88.52995 91.11388,-86.44263 90.12643,-85.53435 92.9905,-85.53435 1.6022,0 4.84092,2.36826 9.58029,7.00543 l 7.15982,7.00544 -1.23211,3.53443 c -0.88794,2.54717 -28.55081,30.93462 -99.03274,101.62671 -90.2289,90.49797 -106.52375,106.31061 -109.55256,106.31061 -0.60469,0 -3.34181,-1.79556 -6.0825,-3.99013 z"
   id="path16"
   transform="scale(0.4125)" /><path
   style="fill:#ff8080;fill-opacity:0;stroke:#c83737;stroke-width:1.0296"
   d="m 396.26571,508.21205 c -5.83474,-4.30853 -204.24512,-203.41952 -204.24512,-204.96634 0,-1.28195 11.83287,-14.61169 13.59273,-15.31223 2.42343,-0.96468 16.85787,12.0179 80.60146,72.49433 113.33018,107.52148 109.018,103.77108 116.48251,101.30756 7.06643,-2.33213 10.60891,-5.53382 105.92562,-95.73516 76.25297,-72.16071 82.8252,-78.22672 84.75477,-78.22672 0.80338,0 4.69115,3.14841 8.63949,6.99648 l 7.17881,6.99647 -4.38139,5.61614 C 599.5286,314.15823 408.0559,505.8694 403.47292,508.97502 l -3.21949,2.18165 z"
   id="path17"
   transform="scale(0.4125)" /><path
   style="fill:#ff8080;fill-opacity:0;stroke:#c83737;stroke-width:1.0296"
   d="m 296.2677,406.89189 c -56.20335,-56.24361 -102.18791,-102.93651 -102.18791,-103.762 0,-0.82549 2.67057,-4.44986 5.93459,-8.05416 l 5.93458,-6.55326 6.53566,5.24521 c 9.06813,7.27766 21.36879,18.71163 93.30689,86.73267 88.99402,84.14826 89.61058,84.67225 96.82684,82.29067 7.6239,-2.51611 10.32796,-4.94547 106.00456,-95.23614 79.96363,-75.46223 83.77931,-78.9405 85.49647,-77.93627 0.68548,0.40089 4.09766,3.38078 7.58261,6.622 l 6.33628,5.89312 -16.9165,17.7877 c -33.91866,35.6655 -188.6421,189.21617 -190.66917,189.22393 -1.28229,0.005 -38.56906,-36.5906 -104.1849,-102.25347 z"
   id="path18"
   transform="scale(0.4125)" /><path
   style="fill:#ff8080;fill-opacity:0;stroke:#c83737;stroke-width:1.0296"
   d="m 307.77108,416.35647 c -50.7432,-50.61768 -96.83581,-96.9413 -102.42802,-102.94138 l -10.16765,-10.90924 5.35546,-6.23264 5.35547,-6.23265 4.13534,3.24166 c 8.93458,7.00374 40.97138,36.85399 155.48669,144.87459 13.85886,13.07285 25.77542,22.90438 30.11583,24.84647 4.33287,1.93873 4.42285,1.93713 9.17206,-0.16367 7.6531,-3.38533 12.98128,-8.17467 93.96384,-84.46123 67.71363,-63.78707 87.30509,-82.04012 91.44477,-85.1976 l 3.33517,-2.54386 6.19008,5.36257 c 3.40455,2.9494 6.19009,5.72537 6.19009,6.16882 0,2.40144 -135.08611,137.98059 -195.35108,196.06407 l -10.53768,10.15624 z"
   id="path19"
   transform="scale(0.4125)" /><path
   style="fill:#ff8080;fill-opacity:0;stroke:#c83737;stroke-width:1.0296"
   d="m 298.30968,404.85782 c -55.6276,-55.65509 -101.13155,-101.63965 -101.11991,-102.1879 0.0117,-0.54825 2.03878,-3.30326 4.50474,-6.12225 l 4.48355,-5.12543 6.02609,5.12543 c 9.65905,8.21542 68.26981,62.88216 137.81524,128.5414 26.06313,24.60673 39.73105,36.27286 45.60481,38.92556 4.34379,1.96174 4.41098,1.96063 9.18439,-0.15088 7.4773,-3.30756 16.27663,-10.94061 59.97217,-52.02334 71.04398,-66.79586 115.53959,-108.42876 121.27248,-113.4702 7.30793,-6.4265 8.20116,-6.44834 14.15978,-0.34615 l 3.96848,4.06408 -2.59685,3.39608 c -7.37412,9.64365 -199.01096,200.56469 -201.31663,200.56469 -0.4495,0 -46.33074,-45.53599 -101.95834,-101.19109 z"
   id="path20"
   transform="scale(0.4125)" /><path
   style="fill:#ff8080;fill-opacity:0;stroke:#c83737;stroke-width:1.0296"
   d="m 298.83208,403.33659 -100.64919,-100.65311 4.08212,-4.93993 4.08212,-4.93993 10.59735,9.54551 c 16.35648,14.73303 55.40733,51.14176 114.12392,106.40248 46.09033,43.37762 57.21173,53.08232 64.5558,56.33235 4.30781,1.90637 4.4479,1.90457 9.01599,-0.1161 9.10339,-4.02687 15.06936,-9.29216 87.02951,-76.80827 97.18762,-91.18559 99.36483,-93.1789 101.77629,-93.1789 2.12645,0 8.35305,6.16956 8.36245,8.28583 0.008,1.85862 -199.10247,200.72318 -200.97164,200.72318 -0.74555,0 -46.64767,-45.2939 -102.00472,-100.65311 z"
   id="path21"
   transform="scale(0.4125)" /><path
   style="fill:#ff8080;fill-opacity:0;stroke:#c83737;stroke-width:1.0296"
   d="m 299.90458,402.33407 c -54.80595,-54.77802 -99.62835,-99.83594 -99.60534,-100.12869 0.023,-0.29275 1.38038,-2.09734 3.01635,-4.0102 l 2.97451,-3.47793 2.81046,2.21071 c 4.27261,3.36084 35.36876,32.1799 95.66134,88.6563 77.18694,72.30144 82.03924,76.6008 90.89262,80.53475 l 4.40613,1.95785 5.37508,-2.47053 c 9.72773,-4.47111 11.99256,-6.48358 101.64278,-90.3174 77.18162,-72.17417 81.3371,-76.02126 84.24348,-77.99155 2.2855,-1.54938 2.55586,-1.45471 6.17149,2.16092 l 3.78128,3.78128 -99.44688,99.34546 c -54.69578,54.64 -100.08346,99.34546 -100.8615,99.34546 -0.77804,0 -46.25585,-44.81839 -101.0618,-99.59643 z"
   id="path22"
   transform="scale(0.4125)" /><path
   style="fill:#ff8080;fill-opacity:0;stroke:#c83737;stroke-width:1.0296"
   d="M 300.69633,401.04851 C 196.34478,296.77266 200.2888,301.06201 205.64999,297.68026 c 2.0134,-1.27002 -0.60206,-3.61289 82.61624,74.00571 97.94541,91.35474 96.97927,90.48998 106.09494,94.96073 l 5.55855,2.72616 5.41838,-2.51139 c 10.26691,-4.75868 12.34823,-6.6078 109.46241,-97.24978 73.48003,-68.58292 76.71611,-71.54219 78.23436,-71.54219 0.66043,0 2.31453,1.18553 3.67577,2.63451 l 2.475,2.63451 -98.38939,98.26639 c -54.11416,54.04652 -99.02298,98.26639 -99.79738,98.26639 -0.77441,0 -45.91055,-44.47025 -100.30254,-98.82279 z"
   id="path23"
   transform="scale(0.4125)" /><path
   style="fill:#ff8080;fill-opacity:0;stroke:#c83737;stroke-width:1.0296"
   d="M 309.61544,407.97941 C 226.29615,324.84551 204.3758,302.35545 204.3758,300.00459 c 0,-0.49802 0.84457,-0.90549 1.87682,-0.90549 2.21558,0 12.27376,9.08532 82.03567,74.10092 94.53706,88.10516 96.18641,89.57899 105.2767,94.0733 l 6.43501,3.18152 6.56126,-3.2355 c 10.52958,-5.19237 15.92037,-9.97866 108.75406,-96.55887 30.86229,-28.78334 60.92308,-56.6833 66.80177,-61.99991 l 10.68851,-9.66656 2.4927,2.34177 2.4927,2.34177 -21.87592,21.649 c -12.03176,11.90695 -56.02553,55.58723 -97.76392,97.06728 -41.7384,41.48005 -76.47631,75.41828 -77.19534,75.41828 -0.71904,0 -41.82221,-40.42471 -91.34038,-89.83269 z"
   id="path24"
   transform="scale(0.4125)" /><path
   style="fill:#ff8080;fill-opacity:0;stroke:#c83737;stroke-width:1.0296"
   d="m 302.97834,399.17912 c -53.09884,-53.11558 -96.54333,-97.17417 -96.54333,-97.90798 0,-2.45753 5.79941,2.76212 88.54568,79.69385 88.30391,82.09882 89.69698,83.32799 99.68786,87.95879 l 5.42503,2.51451 6.43768,-3.17456 c 11.34334,-5.59366 13.41056,-7.4242 116.43487,-103.10522 37.90164,-35.20012 69.17577,-63.99311 69.49807,-63.98444 0.32229,0.009 1.28097,0.46108 2.13039,1.00536 1.22855,0.78721 -6.66799,9.22449 -38.61003,41.25402 -64.34607,64.52229 -153.79466,152.31945 -155.18452,152.31945 -0.7031,0 -44.72287,-43.45821 -97.8217,-96.57378 z"
   id="path25"
   transform="scale(0.4125)" /><path
   style="fill:#ff8080;fill-opacity:0;stroke:#c83737;stroke-width:1.0296"
   d="m 311.99366,406.07126 c -48.14735,-48.19234 -87.01763,-87.45875 -86.3784,-87.25869 0.63923,0.20006 31.6817,28.67303 68.98327,63.27327 83.16923,77.14622 88.39369,81.77202 97.85576,86.64291 l 7.4474,3.83377 6.48416,-3.1976 c 12.62913,-6.22793 7.82362,-1.96721 134.99049,-119.68721 26.5086,-24.53935 48.46884,-44.34562 48.80052,-44.01393 0.83314,0.83313 -23.66177,25.73739 -88.24636,89.72114 -74.28342,73.59236 -99.72038,98.30877 -101.17472,98.30877 -0.67183,0 -40.61478,-39.43009 -88.76212,-87.62243 z"
   id="path26"
   transform="scale(0.4125)" /><path
   style="fill:#ff8080;fill-opacity:0;stroke:#c83737;stroke-width:1.0296"
   d="m 335.97626,428.10912 c -34.96909,-34.93895 -63.39239,-63.71315 -63.16288,-63.94266 0.22951,-0.22951 18.39985,16.23741 40.37853,36.59316 64.40117,59.6457 69.98415,64.48078 80.37793,69.6105 l 6.43986,3.17831 7.5958,-3.75851 c 11.60624,-5.74292 16.33274,-9.89719 112.78875,-99.13355 25.09592,-23.2175 46.15017,-42.35271 46.78723,-42.52268 1.34579,-0.35906 -97.13369,97.55913 -137.57354,136.78944 -15.14421,14.69125 -28.10115,26.71136 -28.79322,26.71136 -0.69205,0 -29.86936,-28.58642 -64.83846,-63.52537 z"
   id="path27"
   transform="scale(0.4125)" /><path
   style="fill:#ff8080;fill-opacity:0;stroke:#c83737;stroke-width:1.0296"
   d="m 359.15675,449.22117 c -22.24149,-22.19477 -40.24364,-40.54955 -40.00478,-40.78841 0.23885,-0.23885 9.14513,7.62868 19.79173,17.48342 36.91599,34.17026 45.688,41.42436 55.74478,46.0987 l 5.41488,2.51681 7.41293,-3.67278 c 11.69815,-5.7959 22.53539,-15.12063 87.52243,-75.30729 14.61365,-13.53418 26.79214,-24.38571 27.06332,-24.11453 0.48715,0.48715 -87.49916,87.36024 -109.03256,107.65305 -6.11938,5.76684 -11.65434,10.48515 -12.29991,10.48515 -0.64557,0 -19.37134,-18.15936 -41.61282,-40.35412 z"
   id="path28"
   transform="scale(0.4125)" /><path
   style="fill:#ff8080;fill-opacity:0;stroke:#c83737;stroke-width:1.0296"
   d=""
   id="path29"
   transform="scale(0.4125)" /><path
   style="fill:#ff8080;fill-opacity:0;stroke:#c83737;stroke-width:1.0296"
   d=""
   id="path30"
   transform="scale(0.4125)" /><path
   style="fill:#ff8080;fill-opacity:0;stroke:#c83737;stroke-width:1.0296"
   d=""
   id="path31"
   transform="scale(0.4125)" /><path
   style="fill:#ff8080;fill-opacity:0;stroke:#c83737;stroke-width:1.0296"
   d=""
   id="path32"
   transform="scale(0.4125)" /><path
   style="fill:#ff8080;fill-opacity:0;stroke:#c83737;stroke-width:1.0296"
   d="m 403.28952,470.52767 c 0.021,-1.69884 0.25174,-2.26917 0.51279,-1.26741 0.26105,1.00177 0.24388,2.39173 -0.0381,3.08881 -0.28204,0.69707 -0.49562,-0.12256 -0.47464,-1.8214 z"
   id="path33"
   transform="scale(0.4125)" /><path
   style="fill:#ff8080;fill-opacity:0;stroke:#c83737;stroke-width:1.0296"
   d="m 380.43758,468.46847 c -10.46471,-10.47619 -18.67502,-19.04762 -18.24513,-19.04762 0.42989,0 4.59508,3.31348 9.25597,7.36329 9.26376,8.0492 17.41231,13.67702 24.27325,16.7644 l 4.42511,1.99126 7.55371,-3.73768 c 10.59508,-5.24258 23.01206,-15.42256 55.39132,-45.4122 6.66961,-6.17738 12.34947,-11.00871 12.6219,-10.73627 0.47324,0.47324 -53.79872,53.76881 -67.21056,66.0014 -3.53433,3.22357 -7.01393,5.86104 -7.73244,5.86104 -0.71851,0 -9.86842,-8.57143 -20.33313,-19.04762 z"
   id="path34"
   transform="scale(0.4125)" /><path
   style="fill:#ff8080;fill-opacity:0;stroke:#c83737;stroke-width:1.0296"
   d="m 390.6747,476.64614 c -5.32491,-5.34714 -9.39944,-9.72207 -9.05452,-9.72207 0.34492,0 3.21623,1.55907 6.38069,3.46461 10.64295,6.40885 11.28393,6.51733 18.46718,3.1252 6.52744,-3.08243 19.11897,-11.9032 26.46344,-18.53849 2.30371,-2.08126 4.37436,-3.59832 4.60145,-3.37124 0.52242,0.52243 -32.94392,32.49882 -35.37456,33.79966 -1.47046,0.78696 -3.58342,-0.82442 -11.48368,-8.75767 z"
   id="path35"
   transform="scale(0.4125)" /><path
   style="fill:#ff8080;fill-opacity:0;stroke:#c83737;stroke-width:1.0296"
   d="m 394.85199,478.76448 c -5.24284,-5.30879 -6.09707,-7.48328 -1.60501,-4.08566 3.41917,2.58613 9.72478,1.80535 16.97646,-2.1021 3.64091,-1.96184 6.77772,-3.40911 6.97069,-3.21614 0.48446,0.48446 -14.94822,15.0667 -15.9454,15.0667 -0.44235,0 -3.32088,-2.54826 -6.39674,-5.6628 z"
   id="path36"
   transform="scale(0.4125)" /><path
   style="fill:#ff8080;fill-opacity:0;stroke:#c83737;stroke-width:1.0296"
   d="m 398.4681,480.32193 -2.97176,-3.10185 3.02403,-0.0452 c 1.66322,-0.0249 4.85958,-0.69897 7.10302,-1.49802 2.24345,-0.79905 4.20284,-1.32897 4.35422,-1.1776 0.15138,0.15138 -1.70769,2.22132 -4.13126,4.59987 l -4.40649,4.32464 z"
   id="path37"
   transform="scale(0.4125)" /><path
   style="fill:#ff8080;fill-opacity:0;stroke:#c83737;stroke-width:1.0296"
   d=""
   id="path38"
   transform="scale(0.4125)" /><path
   style="fill:#ff8080;fill-opacity:0;stroke:#c83737;stroke-width:1.0296"
   d=""
   id="path39"
   transform="scale(0.4125)" /><path
   style="fill:#ff8080;fill-opacity:0;stroke:#c83737;stroke-width:1.0296"
   d=""
   id="path40"
   transform="scale(0.4125)" /><path
   style="fill:#ff8080;fill-opacity:0;stroke:#c83737;stroke-width:1.0296"
   d=""
   id="path41"
   transform="scale(0.4125)" /><path
   style="fill:#ff8080;fill-opacity:0;stroke:#c83737;stroke-width:1.0296"
   d="m 443.90051,457.14286 c 0.32596,-0.84942 1.06313,-1.5444 1.63816,-1.5444 0.60263,0 0.50256,0.65421 -0.23622,1.5444 -1.63291,1.96753 -2.15695,1.96753 -1.40194,0 z"
   id="path42"
   transform="scale(0.4125)" /><path
   style="fill:#ff8080;fill-opacity:0;stroke:#c83737;stroke-width:1.0296"
   d=""
   id="path43"
   transform="scale(0.4125)" /><path
   style="fill:#ff8080;fill-opacity:0;stroke:#c83737;stroke-width:1.0296"
   d="m 474.5695,429.14369 c 0.15008,-1.0226 0.61481,-1.78204 1.03273,-1.68766 1.56358,0.35311 1.62328,1.11615 0.181,2.31314 -1.20898,1.00336 -1.43565,0.88654 -1.21373,-0.62548 z m 3.68018,-1.84155 c 0,-0.34024 0.98382,-1.64171 2.18626,-2.89217 l 2.18627,-2.27355 -1.1622,2.25926 c -1.15007,2.23569 -3.21033,4.10093 -3.21033,2.90646 z"
   id="path44"
   transform="scale(0.4125)" /><path
   style="fill:#ff8080;fill-opacity:0;stroke:#c83737;stroke-width:1.0296"
   d="m 490.60489,413.84474 c 0,-0.21311 0.98025,-0.91209 2.17833,-1.55328 1.69529,-0.9073 2.08246,-0.8782 1.74599,0.13121 -0.38028,1.14083 -3.92432,2.42509 -3.92432,1.42207 z m 5.14801,-3.51376 c 0,-0.73581 0.99753,-2.20299 2.21674,-3.26041 3.24877,-2.81764 3.66218,-2.34451 0.79413,0.90884 -1.37284,1.55727 -2.6119,3.02445 -2.75347,3.2604 -0.14157,0.23595 -0.2574,-0.17302 -0.2574,-0.90883 z"
   id="path45"
   transform="scale(0.4125)" /><path
   style="fill:#ff8080;fill-opacity:0;stroke:#c83737;stroke-width:1.0296"
   d="m 503.54075,401.74408 c 0.3681,-0.95925 1.05179,-1.74408 1.51933,-1.74408 0.76592,0 2.35512,-3.46017 2.48262,-5.40541 0.0278,-0.42471 0.3981,-0.7722 0.82281,-0.7722 h 1.31344 c 1.01357,0 -2.38155,5.66036 -4.59854,7.66672 -1.86316,1.68613 -2.10416,1.72604 -1.53966,0.25497 z"
   id="path46"
   transform="scale(0.4125)" /><path
   style="fill:#ff8080;fill-opacity:0;stroke:#c83737;stroke-width:1.0296"
   d="m 524.20939,385.07079 c 0.32596,-0.84943 1.06313,-1.54441 1.63816,-1.54441 0.60263,0 0.50256,0.65422 -0.23622,1.54441 -0.70496,0.84942 -1.44213,1.5444 -1.63816,1.5444 -0.19603,0 -0.0897,-0.69498 0.23622,-1.5444 z m 3.46114,-2.57401 c 0,-0.56628 0.49066,-1.0296 1.09036,-1.0296 0.5997,0 0.80402,0.46332 0.45404,1.0296 -0.34998,0.56628 -0.84065,1.0296 -1.09037,1.0296 -0.24972,0 -0.45403,-0.46332 -0.45403,-1.0296 z m 3.0888,-2.0592 c 0,-0.56628 0.49066,-1.0296 1.09037,-1.0296 0.5997,0 0.80401,0.46332 0.45403,1.0296 -0.34998,0.56628 -0.84064,1.0296 -1.09036,1.0296 -0.24972,0 -0.45404,-0.46332 -0.45404,-1.0296 z m 3.0888,-1.43847 c 0,-1.07736 2.21367,-3.16873 4.84417,-4.57652 2.77881,-1.48718 5.69717,-1.57254 3.15704,-0.0924 -0.97899,0.57049 -1.98414,0.90389 -2.23365,0.74089 -0.24951,-0.16299 -1.64928,0.82688 -3.1106,2.19972 -1.46133,1.37284 -2.65696,2.15056 -2.65696,1.72826 z"
   id="path47"
   transform="scale(0.4125)" /><path
   style="fill:#ff8080;fill-opacity:0;stroke:#c83737;stroke-width:1.0296"
   d="m 563.89171,364.07839 c -1.05991,-0.65506 -1.05539,-1.01015 0.0235,-1.8468 2.56998,-1.99291 3.77192,-2.41238 4.32912,-1.51083 0.8723,1.41143 -2.85251,4.28476 -4.35264,3.35763 z"
   id="path48"
   transform="scale(0.4125)" /><path
   style="fill:#ff8080;fill-opacity:0;stroke:#c83737;stroke-width:1.0296"
   d="m 587.01595,342.5743 c -0.27113,-0.4387 -0.11424,-2.40781 0.34864,-4.3758 l 0.84162,-3.57817 0.10539,4.37581 c 0.1019,4.23109 -0.26533,5.24527 -1.29565,3.57816 z"
   id="path49"
   transform="scale(0.4125)" /><path
   style="fill:#ff8080;fill-opacity:0;stroke:#c83737;stroke-width:1.0296"
   d=""
   id="path50"
   transform="scale(0.4125)" /><path
   style="fill:#ff8080;fill-opacity:0;stroke:#c83737;stroke-width:1.0296"
   d=""
   id="path51"
   transform="scale(0.4125)" /><path
   style="fill:#ff8080;fill-opacity:0;stroke:#c83737;stroke-width:1.0296"
   d=""
   id="path52"
   transform="scale(0.4125)" /><path
   style="fill:#ff8080;fill-opacity:0;stroke:#c83737;stroke-width:1.0296"
   d=""
   id="path53"
   transform="scale(0.4125)" /><path
   style="fill:#ff8080;fill-opacity:0;stroke:#c83737;stroke-width:1.0296"
   d=""
   id="path54"
   transform="scale(0.4125)" /><path
   style="fill:#ff8080;fill-opacity:0;stroke:#c83737;stroke-width:1.0296"
   d=""
   id="path55"
   transform="scale(0.4125)" /><path
   style="fill:#ff8080;fill-opacity:0;stroke:#c83737;stroke-width:1.0296"
   d=""
   id="path56"
   transform="scale(0.4125)" /><path
   style="fill:#ff8080;fill-opacity:0;stroke:#c83737;stroke-width:1.0296"
   d=""
   id="path57"
   transform="scale(0.4125)" /><path
   style="fill:#ff8080;fill-opacity:0;stroke:#c83737;stroke-width:1.0296"
   d=""
   id="path58"
   transform="scale(0.4125)" /></svg>
