<?xml version="1.0" encoding="UTF-8" standalone="no"?>
<!-- Generator: Adobe Illustrator 26.0.3, SVG Export Plug-In . SVG Version: 6.00 Build 0)  -->

<svg
   version="1.0"
   id="katman_1"
   x="0px"
   y="0px"
   viewBox="0 0 600 450"
   style="enable-background:new 0 0 600 450;"
   xml:space="preserve"
   sodipodi:docname="instalogo.svg"
   inkscape:version="1.3 (0e150ed6c4, 2023-07-21)"
   xmlns:inkscape="http://www.inkscape.org/namespaces/inkscape"
   xmlns:sodipodi="http://sodipodi.sourceforge.net/DTD/sodipodi-0.dtd"
   xmlns="http://www.w3.org/2000/svg"
   xmlns:svg="http://www.w3.org/2000/svg"><defs
   id="defs3" /><sodipodi:namedview
   id="namedview3"
   pagecolor="#ffffff"
   bordercolor="#000000"
   borderopacity="0.25"
   inkscape:showpageshadow="2"
   inkscape:pageopacity="0.0"
   inkscape:pagecheckerboard="0"
   inkscape:deskcolor="#d1d1d1"
   inkscape:zoom="1.2209377"
   inkscape:cx="308.36953"
   inkscape:cy="267.4174"
   inkscape:window-width="1920"
   inkscape:window-height="991"
   inkscape:window-x="-9"
   inkscape:window-y="-9"
   inkscape:window-maximized="1"
   inkscape:current-layer="katman_1" />&#10;<style
   type="text/css"
   id="style1">&#10;	.st0{fill:#010202;}&#10;</style>&#10;<ellipse
   class="st0"
   cx="301.45721"
   cy="225.64525"
   id="circle1"
   style="fill:#e9c6af;stroke-width:1.82944"
   inkscape:transform-center-x="51.267931"
   inkscape:transform-center-y="74.077785"
   rx="42.311455"
   ry="41.481361" />&#10;<path
   class="st0"
   d="m 400.30716,152.46412 c -2.21721,-5.79652 -5.17347,-9.96276 -9.42307,-14.31015 -4.43439,-4.3474 -8.68402,-7.06452 -14.59654,-9.23821 -4.43438,-1.63028 -11.08596,-3.62283 -23.46532,-4.34739 -13.30316,-0.54343 -17.36801,-0.72457 -51.18024,-0.72457 -33.81218,0 -37.87706,0 -51.18023,0.72457 -12.37932,0.54342 -19.03091,2.53598 -23.4653,4.34739 -5.91252,2.17369 -10.16213,5.07196 -14.59652,9.23821 -4.43439,4.34739 -7.20588,8.51363 -9.42309,14.31015 -1.66288,4.3474 -3.6953,10.86848 -4.43439,23.00496 -0.55427,13.04216 -0.73907,17.02728 -0.73907,50.17614 0,33.14885 0,37.13397 0.73907,50.17613 0.55432,12.13649 2.58674,18.65756 4.43439,23.00496 2.21721,5.79651 5.17348,9.96276 9.42309,14.31015 4.43439,4.3474 8.684,7.06452 14.59652,9.23821 4.43439,1.63029 11.08598,3.62283 23.4653,4.3474 13.30317,0.54343 17.36805,0.72455 51.18023,0.72455 33.81223,0 37.87708,0 51.18024,-0.72455 12.37936,-0.54343 19.03094,-2.53597 23.46532,-4.3474 5.91252,-2.17369 10.16215,-5.07196 14.59654,-9.23821 4.43439,-4.34739 7.20586,-8.51364 9.42307,-14.31015 1.66288,-4.3474 3.69531,-10.86847 4.43438,-23.00496 0.5543,-13.04216 0.73907,-17.02728 0.73907,-50.17613 0,-33.14886 0,-37.13398 -0.73907,-50.17614 -0.5543,-12.13648 -2.7715,-18.65756 -4.43438,-23.00496 z M 301.45724,289.5881 c -36.02939,0 -65.0377,-28.62033 -65.0377,-63.76174 0,-35.14141 29.19307,-63.76174 65.0377,-63.76174 36.02942,0 65.0377,28.62033 65.0377,63.76174 0,35.14141 -29.19306,63.76174 -65.0377,63.76174 z m 67.62443,-115.38701 c -8.49927,0 -15.15082,-6.70223 -15.15082,-14.85359 0,-8.33251 6.83635,-14.85359 15.15082,-14.85359 8.49925,0 15.15083,6.70222 15.15083,14.85359 0.18476,8.33249 -6.65158,14.85359 -15.15083,14.85359 z"
   id="path1"
   style="fill:#aa4400;stroke-width:1.82944"
   inkscape:transform-center-x="51.083144"
   inkscape:transform-center-y="74.077735" />&#10;<path
   class="st0"
   d="m 302.78578,4.7994634 c -120.37028,0 -217.804135,96.5178966 -217.804135,215.7565466 0,119.23867 97.433855,215.75655 217.804135,215.75655 120.37029,0 217.80417,-96.51788 217.80417,-215.75655 0,-119.23865 -97.61735,-215.7565466 -217.80417,-215.7565466 z M 428.11035,276.35826 c -0.55048,13.26894 -2.75238,22.35725 -5.87172,30.35496 -3.30285,8.17949 -7.52314,15.26836 -14.49583,22.17547 -6.97265,6.90712 -13.94533,11.26952 -22.38592,14.35954 -8.07362,3.09003 -17.24819,5.08947 -30.64306,5.81653 -13.39486,0.54529 -17.61516,0.72707 -51.92804,0.72707 -34.31286,0 -38.53318,-0.18178 -51.92801,-0.72707 -13.39485,-0.5453 -22.56944,-2.7265 -30.64306,-5.81653 -8.25709,-3.27177 -15.41326,-7.45242 -22.38593,-14.35954 -6.97267,-6.90711 -11.37645,-13.81423 -14.49582,-22.17547 -3.11936,-7.99771 -5.13775,-17.08602 -5.87171,-30.35496 -0.55048,-13.26894 -0.73396,-17.44958 -0.73396,-51.43986 0,-33.99028 0.18346,-38.1709 0.73396,-51.43984 0.55046,-13.26893 2.75235,-22.35723 5.87171,-30.35496 3.30286,-8.17949 7.52315,-15.26837 14.49582,-22.17548 6.97267,-6.90713 13.94532,-11.26951 22.38593,-14.35956 8.07362,-3.09 17.24821,-5.08945 30.64306,-5.81651 13.39483,-0.54528 17.61515,-0.72708 51.92801,-0.72708 34.31288,0 38.53318,0.1818 51.92804,0.72708 13.39487,0.54531 22.56944,2.72651 30.64306,5.81651 8.2571,3.27181 15.41327,7.45243 22.38592,14.35956 6.97269,6.90711 11.37647,13.81423 14.49583,22.17548 3.11934,7.99773 5.13775,17.08603 5.87172,30.35496 0.73397,13.26894 0.73397,17.44956 0.73397,51.43984 0,33.99028 -0.18349,38.17092 -0.73397,51.43986 z"
   id="path2"
   style="fill:#ff8080;stroke-width:1.82627"
   inkscape:transform-center-x="51.097631"
   inkscape:transform-center-y="69.970927" />&#10;&#10;</svg>
